User Type,Username,Date,Text
,Wovoka_paiute,2012-04-24T00:17Z,"Seljačka buna 1573.


Godina proizvodnje: 1975
Trajanje: 161 minuta

Režija: Mimica Vatroslav 
Produkcija: Jadran film : FRZ - Centar filmskih radnih zajednica SR Srbije (kasnije Centar film) : Croatia film 
Snimatelj: Blažina Branko 
Filmski rod: Igrani film
Zemlja proizvodnje: Socijalistička Federativna Republika Jugoslavija (Socijalistička Republika Hrvatska/Socijalistička Republika Srbija)

Scenarij: Vatroslav Mimica
Glazba: Alfi Kabiljo
Montaža: Vuksan Lukovac
Scenografija: Veljko Despotović
Kostimografija: Ferdinand Kulmer

Uloge: Srđan/Sergio Mimica (Petrek), Marina Nemet (Regica), Fabijan Šovagović (Matija Gubec), Velimir Bata Živojinović (Ilija Gregorić), Pavle Vuisić (Franjo Tahi), Zdenka Heršak (putujuća glumica Kata Palondra), Franjo Majetić (putujući glumac), Đuro Utješinović (Tahijev sin), Adem Čejvan (Mikula), Stole Aranđelović, Boris Festini, Ivica Pajer

Sadržaj: U zimu 1573. u stubičkom kraju izbija seljačka buna pod vodstvom Matije Gupca i Ilije Gregorića, a protiv strahovlade veleposjednika Franje Tahija. Ustanici se povežu sa slovenskim kmetovima i buna uskoro dobije silan zamah prerastajući u antifeudalni pokret. Njezin sudionik i svjedok tih zbivanja je i mladi Petrek, koji se zbližio s djevojkom Regicom iz putujuće kazališne družine..."
,Wovoka_paiute,2012-04-24T00:18Z,"SELJACKA_BUNA_1573_domaci_film.avi
Format                           : AVI
Format/Info                      : Audio Video Interleave
File size                        : 901 MiB
Duration                         : 2h 4mn
Overall bit rate                 : 1 011 Kbps
Writing application              : VirtualDubMod 1.5.4.1 (build 2178/release)
Writing library                  : VirtualDub build 32706/release

Video
ID                               : 0
Format                           : MPEG-4 Visual
Format profile                   : Advanced Simple@L5
Format settings, BVOP            : 2
Format settings, QPel            : No
Format settings, GMC             : No warppoints
Format settings, Matrix          : Default (MPEG)
Codec ID                         : XVID
Codec ID/Hint                    : XviD
Duration                         : 2h 4mn
Bit rate                         : 874 Kbps
Width                            : 640 pixels
Height                           : 480 pixels
Display aspect ratio             : 4:3
Frame rate                       : 25.000 fps
Color space                      : YUV
Chroma subsampling               : 4:2:0
Bit depth                        : 8 bits
Scan type                        : Progressive
Compression mode                 : Lossy
Bits/(Pixel*Frame)               : 0.114
Stream size                      : 778 MiB (86%)
Writing library                  : XviD 63

Audio
ID                               : 1
Format                           : MPEG Audio
Format version                   : Version 1
Format profile                   : Layer 3
Mode                             : Joint stereo
Codec ID                         : 55
Codec ID/Hint                    : MP3
Duration                         : 2h 4mn
Bit rate mode                    : Constant
Bit rate                         : 128 Kbps
Channel(s)                       : 2 channels
Sampling rate                    : 48.0 KHz
Compression mode                 : Lossy
Stream size                      : 114 MiB (13%)
Alignment                        : Split accross interleaves
Interleave, duration             : 40 ms (1.00 video frame)
Interleave, preload duration     : 500 ms"
,inside83,2012-04-24T05:35Z,"aj da vidim i to :)
hvala"
,Wovoka_paiute,2012-06-04T22:54Z,"serija ""Anno domini 1573"" (Seljacka buna 1573) (1979)
http://thepiratebay.se/torrent/7328870/serija_Anno_domini_1573_(1979)_domaci_film"
